<svg xmlns="http://www.w3.org/2000/svg" xmlns:xlink="http://www.w3.org/1999/xlink" width="788.5" height="373.299" viewBox="0 0 788.5 373.299">
  <defs>
    <filter id="Rectangle_10" x="277.523" y="7.087" width="333.913" height="332.913" filterUnits="userSpaceOnUse">
      <feOffset dx="10" dy="3" input="SourceAlpha"/>
      <feGaussianBlur stdDeviation="3" result="blur"/>
      <feFlood flood-opacity="0.161"/>
      <feComposite operator="in" in2="blur"/>
      <feComposite in="SourceGraphic"/>
    </filter>
    <filter id="Rectangle_11" x="0" y="0" width="348.252" height="347.252" filterUnits="userSpaceOnUse">
      <feOffset dx="10" dy="3" input="SourceAlpha"/>
      <feGaussianBlur stdDeviation="3" result="blur-2"/>
      <feFlood flood-opacity="0.161"/>
      <feComposite operator="in" in2="blur-2"/>
      <feComposite in="SourceGraphic"/>
    </filter>
    <filter id="Rectangle_12" x="133.798" y="19.447" width="348.101" height="348.101" filterUnits="userSpaceOnUse">
      <feOffset dx="10" dy="10" input="SourceAlpha"/>
      <feGaussianBlur stdDeviation="3" result="blur-3"/>
      <feFlood flood-opacity="0.161"/>
      <feComposite operator="in" in2="blur-3"/>
      <feComposite in="SourceGraphic"/>
    </filter>
    <filter id="Rectangle_13" x="429.248" y="14.047" width="359.252" height="359.252" filterUnits="userSpaceOnUse">
      <feOffset dx="15" dy="7" input="SourceAlpha"/>
      <feGaussianBlur stdDeviation="5" result="blur-4"/>
      <feFlood flood-opacity="0.161"/>
      <feComposite operator="in" in2="blur-4"/>
      <feComposite in="SourceGraphic"/>
    </filter>
  </defs>
  <g id="Rects" transform="matrix(1, 0.017, -0.017, 1, -76.933, -777.559)">
    <g transform="matrix(1, -0.02, 0.02, 1, 90.49, 776.1)" filter="url(#Rectangle_10)">
      <rect id="Rectangle_10-2" data-name="Rectangle 10" width="232.852" height="232.852" transform="translate(277.52 122.4) rotate(-28)" fill="#4d2872"/>
    </g>
    <g transform="matrix(1, -0.02, 0.02, 1, 90.49, 776.1)" filter="url(#Rectangle_11)">
      <rect id="Rectangle_11-2" data-name="Rectangle 11" width="232.852" height="232.852" transform="translate(167.5 6) rotate(46)" fill="#3b1f57"/>
    </g>
    <g transform="matrix(1, -0.02, 0.02, 1, 90.49, 776.1)" filter="url(#Rectangle_12)">
      <rect id="Rectangle_12-2" data-name="Rectangle 12" width="232.852" height="232.852" transform="matrix(0.73, 0.68, -0.68, 0.73, 292.6, 19.45)" fill="#1c1c91"/>
    </g>
    <g transform="matrix(1, -0.02, 0.02, 1, 90.49, 776.1)" filter="url(#Rectangle_13)">
      <rect id="Rectangle_13-2" data-name="Rectangle 13" width="232.852" height="232.852" transform="translate(758.5 189.55) rotate(136)" fill="#1b1b50"/>
    </g>
  </g>
</svg>
